Coordinates
version=1
nRows=27
nColumns=12
inDegrees=yes

Units are S.I. units (second, meters, Newtons, ...)
Angles are in degrees

endheader
time	SC_y	SC_z	SC_x	AC_y	AC_z	AC_x	GH_y	GH_z	GH_yy	EL_x	PS_y
       0.0              -58.57          34.36          57.36          35.04          -12.6         -8.744          141.9          64.64          146.6          50.12          70.63
   0.03315              -58.57          34.36          57.35          35.04          -12.6         -8.744          141.9          64.64          146.5          50.13          70.63
   0.06631              -58.56          34.36          57.35          35.05          -12.6         -8.745          141.9          64.65          146.5          50.14          70.63
   0.09946              -58.56          34.36          57.34          35.05          -12.6         -8.745          141.9          64.65          146.5          50.15          70.63
    0.1326              -58.55          34.35          57.33          35.06          -12.6         -8.745          141.9          64.65          146.4          50.17          70.64
    0.1658              -58.54          34.35          57.33          35.06          -12.6         -8.745          141.9          64.66          146.4          50.19          70.64
    0.1989              -58.53          34.35          57.32          35.07         -12.61         -8.745          141.9          64.66          146.3           50.2          70.64
    0.2321              -58.53          34.34          57.31          35.07         -12.61         -8.746          141.9          64.67          146.3          50.22          70.64
    0.2652              -58.52          34.34           57.3          35.08         -12.61         -8.746          141.9          64.67          146.2          50.24          70.64
    0.2984              -58.51          34.34          57.29          35.09         -12.61         -8.746          141.9          64.68          146.1          50.26          70.65
    0.3315               -58.5          34.33          57.28          35.09         -12.61         -8.747          141.9          64.68          146.1          50.28          70.65
    0.3647              -58.49          34.33          57.27           35.1         -12.61         -8.747          141.9          64.69          146.0          50.31          70.65
    0.3978              -58.48          34.32          57.26          35.11         -12.61         -8.747          141.9          64.69          145.9          50.33          70.65
     0.431              -58.47          34.32          57.25          35.12         -12.61         -8.748          141.9           64.7          145.8          50.36          70.66
    0.4641              -58.45          34.31          57.23          35.13         -12.61         -8.748          141.9          64.71          145.8          50.39          70.66
    0.4973              -58.44           34.3          57.22          35.14         -12.61         -8.749          141.9          64.72          145.7          50.42          70.66
    0.5304              -58.42           34.3           57.2          35.15         -12.61         -8.749          141.9          64.73          145.5          50.46          70.67
    0.5636              -58.41          34.29          57.18          35.17         -12.61          -8.75          141.9          64.73          145.4           50.5          70.67
    0.5968              -58.39          34.28          57.17          35.18         -12.61         -8.751          142.0          64.75          145.3          50.54          70.68
    0.6299              -58.37          34.27          57.14           35.2         -12.61         -8.751          142.0          64.76          145.2          50.59          70.68
    0.6631              -58.34          34.26          57.12          35.22         -12.61         -8.752          142.0          64.77          145.0          50.64          70.69
    0.6962              -58.32          34.25           57.1          35.23         -12.61         -8.753          142.0          64.78          144.9          50.69           70.7
    0.7294              -58.29          34.24          57.07          35.26         -12.61         -8.754          142.0           64.8          144.7          50.76           70.7
    0.7625              -58.26          34.23          57.04          35.28         -12.62         -8.755          142.0          64.82          144.5          50.82          70.71
    0.7957              -58.23          34.21           57.0          35.31         -12.62         -8.756          142.0          64.83          144.2           50.9          70.72
    0.8288              -58.19          34.19          56.97          35.33         -12.62         -8.758          142.0          64.86          144.0          50.99          70.73
     0.862              -58.15          34.18          56.92          35.37         -12.62         -8.759          142.0          64.88          143.7          51.08          70.74
